<!-- Generated by IcoMoon.io -->
<svg version="1.1" xmlns="http://www.w3.org/2000/svg" width="32" height="32" viewBox="0 0 32 32">
<title>clipboard.ai</title>
<path fill="#25395d" d="M11.1 18.1h9.8v0.8h-9.8v-0.8z"></path>
<path fill="#25395d" d="M11.1 20.5h9.8v0.8h-9.8v-0.8z"></path>
<path fill="#25395d" d="M11.1 23h4.9v0.8h-4.9v-0.8z"></path>
<path fill="#25395d" d="M19.8 10.3h-2.2v-2.1h-2.4v2.1h-2.1v2.4h2.1v2.2h2.4v-2.2h2.2z"></path>
<path fill="#25395d" d="M22.6 2.5h-1.6v-0.9h-3c-0.2-0.9-1-1.6-2-1.6s-1.8 0.7-2 1.6h-2.9v0.8h-1.7c-2.3 0-4.1 1.8-4.1 4.1v21.3c0 2.3 1.8 4.1 4.1 4.1h13.1c2.3 0 4.1-1.8 4.1-4.1v-21.2c0.1-2.3-1.8-4.1-4-4.1zM25 27.9c0 1.4-1.1 2.5-2.5 2.5h-13.1c-1.4 0-2.5-1.1-2.5-2.5v-21.3c0-1.4 1.1-2.5 2.5-2.5h1.6v1h9.8v-1h1.6c1.4 0 2.5 1.1 2.5 2.5v21.3z"></path>
</svg>
