<!-- Generated by IcoMoon.io -->
<svg version="1.1" xmlns="http://www.w3.org/2000/svg" width="32" height="32" viewBox="0 0 32 32">
<title>cross.ai</title>
<path fill="#edf6f6" d="M19.4 30.4h-6.8v-0.5h-1.6v2.1h10v-2.1h-1.6z"></path>
<path fill="#edf6f6" d="M29.3 20.4h-8.3v1.6h9.9v-2.1h-1.6z"></path>
<path fill="#edf6f6" d="M21 11.6h-1.6v2.1h9.9v-1.6h-8.3z"></path>
<path fill="#edf6f6" d="M2.7 20.4v-0.5h-1.6v2.1h9.9v-1.6z"></path>
<path fill="#edf6f6" d="M12.6 2.1h6.8v1.6h-6.8v-1.6z"></path>
<path fill="#edf6f6" d="M12.6 11.6h-1.6v0.5h-8.3v1.6h9.9z"></path>
<path fill="#6091a1" d="M21 10v-10h-10v10h-10v9.9h10v9.9h10v-9.9h10v-9.9h-10zM29.3 13.7v4.6h-10v9.9h-6.8v-9.9h-10v-6.7h10.1v-10h6.8v9.9h10v2.2z"></path>
</svg>
