<!-- Generated by IcoMoon.io -->
<svg version="1.1" xmlns="http://www.w3.org/2000/svg" width="32" height="32" viewBox="0 0 32 32">
<title>eye.ai</title>
<path fill="#b4c2c7" d="M16 24.9c-6.2 0-11.5-2.9-15.7-8.5l-0.3-0.4 0.3-0.4c4.2-5.6 9.5-8.5 15.7-8.5s11.5 2.9 15.7 8.5l0.3 0.4-0.3 0.4c-4.2 5.6-9.5 8.5-15.7 8.5zM1.6 16c4 5.1 8.7 7.6 14.4 7.6s10.4-2.5 14.4-7.6c-3.9-5.1-8.7-7.6-14.4-7.6s-10.4 2.5-14.4 7.6z"></path>
<path fill="#6091a1" d="M15.9 9.6c-0.7 0-1.3 0.1-2 0.3 0.8 0.6 1.4 1.5 1.4 2.5 0 1.7-1.5 3.1-3.3 3.1-1.2 0-2.2-0.6-2.8-1.4-0.2 0.6-0.4 1.3-0.4 2.1 0 3.7 3.1 6.6 7 6.6s7-3 7-6.6c0.1-3.6-3-6.6-6.9-6.6z"></path>
</svg>
