<!-- Generated by IcoMoon.io -->
<svg version="1.1" xmlns="http://www.w3.org/2000/svg" width="32" height="32" viewBox="0 0 32 32">
<title>stethoscope.ai</title>
<path fill="#b4c2c7" d="M19.8 19.1c0 0 0 0 0 0-1 0-2 0.4-2.7 1.1-1.3 1.3-1.5 3.3-0.5 4.8l-4 4c-1.1 1.1-2.7 1.6-4.2 1.3-1.4-0.3-2.6-1.4-2.8-2.8-0.3-1.5 0.2-3.1 1.3-4.2l5.9-5.9-0.1-0.1c0.6 0.5 1.3 0.8 2 1.1 0.6 0.2 1.3 0.3 2 0.3 1.6 0 3.2-0.6 4.3-1.8l4.9-4.9-1.1-1.1-4.9 4.9c-1.2 1.2-3.1 1.6-4.7 1.1-1.7-0.6-3.1-2-3.7-3.7-0.6-1.6-0.1-3.5 1.1-4.7l4.9-4.9-1.1-1.1-4.9 4.9c-1.6 1.6-2.2 4.1-1.5 6.3 0.3 1 0.9 1.9 1.7 2.7l-5.9 5.9c-1.5 1.5-2.1 3.6-1.7 5.6 0.4 2.1 2 3.6 4.1 4.1 0.2 0 0.7 0 1.1 0 1.6 0 3.2-0.6 4.4-1.8l4-4c0.6 0.4 1.4 0.6 2.1 0.6 1 0 2-0.4 2.7-1.1 1.5-1.5 1.5-3.9 0-5.4-0.7-0.8-1.7-1.2-2.7-1.2zM21.4 24.5c-0.9 0.9-2.3 0.9-3.2 0s-0.9-2.3 0-3.2c0.4-0.4 1-0.7 1.6-0.7 0 0 0 0 0 0 0.6 0 1.2 0.2 1.6 0.7 0.9 0.9 0.9 2.3 0 3.2z"></path>
<path fill="#6098af" d="M19.085 0.665c0.859 0.859 0.859 2.252 0 3.111s-2.252 0.859-3.111 0c-0.859-0.859-0.859-2.252 0-3.111s2.252-0.859 3.111 0z"></path>
<path fill="#6098af" d="M27.536 9.041c0.859 0.859 0.859 2.252 0 3.111s-2.252 0.859-3.111 0c-0.859-0.859-0.859-2.252 0-3.111s2.252-0.859 3.111 0z"></path>
</svg>
