<!-- Generated by IcoMoon.io -->
<svg version="1.1" xmlns="http://www.w3.org/2000/svg" width="32" height="32" viewBox="0 0 32 32">
<title>syringe.ai</title>
<path fill="#b4c2c7" d="M27.9 19.4l-14.7-14.7 2.9-2.9-1.1-1.2-7 7-3-3 1.7-1.7-1-1.2-4.9 4.9 1.1 1.1 2.1-2.1 3 3-7 7 1.1 1.1 3.4-3.4 14.7 14.7c1.2 1.2 2.7 1.8 4.3 1.8s3.2-0.6 4.3-1.8c1.2-1.2 1.8-2.7 1.8-4.3 0.1-1.6-0.5-3.2-1.7-4.3zM26.8 27c-1.8 1.8-4.7 1.8-6.4 0l-14.5-14.5 6.4-6.4 14.5 14.5c0.9 0.9 1.3 2 1.3 3.2 0 1.1-0.4 2.3-1.3 3.2z"></path>
<path fill="#6091a1" d="M18.986 20.337l3.748-3.748 0.778 0.778-3.748 3.748-0.778-0.778z"></path>
<path fill="#6091a1" d="M16.4 17.704l3.748-3.748 0.778 0.778-3.748 3.748-0.778-0.778z"></path>
<path fill="#6091a1" d="M13.404 14.695l3.748-3.748 0.778 0.778-3.748 3.748-0.778-0.778z"></path>
<path fill="#6091a1" d="M27.498 27.656l0.778-0.778 3.748 3.748-0.778 0.778-3.748-3.748z"></path>
</svg>
